<?xml version="1.0" encoding="utf-8"?>
<!-- Generator: Adobe Illustrator 25.0.0, SVG Export Plug-In . SVG Version: 6.00 Build 0)  -->
<svg version="1.1" id="_x32_" xmlns="http://www.w3.org/2000/svg" xmlns:xlink="http://www.w3.org/1999/xlink" x="0px" y="0px"
	 viewBox="0 0 512 512" style="enable-background:new 0 0 512 512;" xml:space="preserve">
<style type="text/css">
	.st0{fill:#FFFFFF;}
</style>
<g>
	<path class="st0" d="M256,0c-10.7,0-21.4,0.6-31.8,2C97.8,17.6,0,125.4,0,256c0,141.4,114.6,256,256,256
		c79.3,0,150.2-36,197.1-92.6C489.9,375,512,318.1,512,256C512,114.6,397.4,0,256,0z M64,256c0-78.2,47.3-146.7,116-176.3
		c-9.5,26.8-14.8,55.6-14.8,85.7c0,121.6,84.9,223.4,198.6,249.5C332.5,436.2,295,448,256,448C150.1,448,64,361.9,64,256z"/>
</g>
</svg>
