<?xml version="1.0" encoding="utf-8"?>
<!-- Generator: Adobe Illustrator 25.0.0, SVG Export Plug-In . SVG Version: 6.00 Build 0)  -->
<svg version="1.1" id="_x32_" xmlns="http://www.w3.org/2000/svg" xmlns:xlink="http://www.w3.org/1999/xlink" x="0px" y="0px"
	 viewBox="0 0 512 512" style="enable-background:new 0 0 512 512;" xml:space="preserve">
<style type="text/css">
	.st0{fill:#FFFFFF;}
</style>
<g>
	<path class="st0" d="M256,118.1c-76.2,0-137.9,61.7-137.9,137.9S179.8,393.9,256,393.9S393.9,332.2,393.9,256
		S332.2,118.1,256,118.1z"/>
	<rect x="235.9" class="st0" width="40.2" height="77.3"/>
	<rect x="235.9" y="434.7" class="st0" width="40.2" height="77.3"/>
	
		<rect x="82.2" y="63.7" transform="matrix(0.7071 -0.7071 0.7071 0.7071 -42.3746 102.3047)" class="st0" width="40.1" height="77.3"/>
	<polygon class="st0" points="368.2,396.5 422.8,451.2 451.2,422.8 396.6,368.2 	"/>
	<rect y="235.9" class="st0" width="77.3" height="40.2"/>
	<polygon class="st0" points="434.7,235.9 434.7,276.1 512,276.1 512,235.9 	"/>
	<polygon class="st0" points="60.8,422.8 89.2,451.2 143.8,396.5 115.4,368.2 	"/>
	<polygon class="st0" points="451.2,89.2 422.8,60.8 368.2,115.4 396.6,143.8 	"/>
</g>
</svg>
